/* XPM */
static char * exit_xpm[] = {
"64 64 255 2",
"  	c None",
". 	c #D0B2A3",
"+ 	c #D5916E",
"@ 	c #D08663",
"# 	c #D07858",
"$ 	c #C37A63",
"% 	c #C87963",
"& 	c #BA8070",
"* 	c #D78F70",
"= 	c #DC9979",
"- 	c #C8BBB8",
"; 	c #CA9D90",
"> 	c #C2583D",
", 	c #BB4C38",
"' 	c #AE3E38",
") 	c #C05943",
"! 	c #CCB1B2",
"~ 	c #B57675",
"{ 	c #935E51",
"] 	c #AF423E",
"^ 	c #B24238",
"/ 	c #B74838",
"( 	c #AF4838",
"_ 	c #BA5541",
": 	c #B9523D",
"< 	c #B84D3B",
"[ 	c #A43939",
"} 	c #85403E",
"| 	c #B16F55",
"1 	c #BD785A",
"2 	c #C05942",
"3 	c #AE3D38",
"4 	c #9F2C39",
"5 	c #A63438",
"6 	c #C7674B",
"7 	c #BB5942",
"8 	c #C16046",
"9 	c #9F3F3C",
"0 	c #8B4C47",
"a 	c #BB8169",
"b 	c #C27D5D",
"c 	c #B87256",
"d 	c #B86753",
"e 	c #88403E",
"f 	c #915547",
"g 	c #D5976D",
"h 	c #E2A475",
"i 	c #CE8865",
"j 	c #A54041",
"k 	c #9C3A3E",
"l 	c #BA5B44",
"m 	c #B75947",
"n 	c #B65B46",
"o 	c #CF8E67",
"p 	c #CE8C66",
"q 	c #8A5145",
"r 	c #AB735F",
"s 	c #BF846B",
"t 	c #E0A273",
"u 	c #D18F68",
"v 	c #8E5447",
"w 	c #884F44",
"x 	c #D3956C",
"y 	c #C88562",
"z 	c #B56E54",
"A 	c #975949",
"B 	c #AE6145",
"C 	c #A15C46",
"D 	c #AF6A52",
"E 	c #CB906A",
"F 	c #A66952",
"G 	c #A66854",
"H 	c #905B4F",
"I 	c #CD916F",
"J 	c #9F5F4C",
"K 	c #A06752",
"L 	c #DC9D70",
"M 	c #A7654F",
"N 	c #7F4941",
"O 	c #8F5041",
"P 	c #7F4A42",
"Q 	c #C07B5C",
"R 	c #965F4E",
"S 	c #B77357",
"T 	c #955849",
"U 	c #77443F",
"V 	c #7D4841",
"W 	c #A1614D",
"X 	c #B47158",
"Y 	c #9A614F",
"Z 	c #A86952",
"` 	c #78453F",
" .	c #7C4740",
"..	c #9D5E4C",
"+.	c #BE795B",
"@.	c #8D5346",
"#.	c #AA7B81",
"$.	c #89544A",
"%.	c #71403D",
"&.	c #75423E",
"*.	c #73413D",
"=.	c #985A4A",
"-.	c #804A42",
";.	c #74423E",
">.	c #845048",
",.	c #C98C6C",
"'.	c #C38160",
").	c #844D43",
"!.	c #BA7457",
"~.	c #DFA072",
"{.	c #AE765B",
"].	c #B77156",
"^.	c #BF7A5B",
"/.	c #BE8463",
"(.	c #8C5246",
"_.	c #CF8E68",
":.	c #DFA073",
"<.	c #DDA072",
"[.	c #B97357",
"}.	c #DD9F72",
"|.	c #B0785C",
"1.	c #B57678",
"2.	c #8E5143",
"3.	c #DFA173",
"4.	c #B67B5D",
"5.	c #BE8262",
"6.	c #C27E5D",
"7.	c #9B5C4B",
"8.	c #A16752",
"9.	c #CD9069",
"0.	c #D1926A",
"a.	c #AD6C53",
"b.	c #9C624F",
"c.	c #AA7057",
"d.	c #B07B7E",
"e.	c #8B5347",
"f.	c #874F44",
"g.	c #DC9D71",
"h.	c #AB6D55",
"i.	c #B6785B",
"j.	c #D79A6F",
"k.	c #885045",
"l.	c #7B4740",
"m.	c #834C43",
"n.	c #8E5346",
"o.	c #76433E",
"p.	c #945748",
"q.	c #B86748",
"r.	c #AC6851",
"s.	c #A26B55",
"t.	c #7E4841",
"u.	c #BC7A5C",
"v.	c #8F5447",
"w.	c #9D614E",
"x.	c #845146",
"y.	c #905547",
"z.	c #9C6652",
"A.	c #C8724D",
"B.	c #C37E5E",
"C.	c #B87558",
"D.	c #864E44",
"E.	c #B26C53",
"F.	c #AC6A52",
"G.	c #B1795C",
"H.	c #945F4E",
"I.	c #824B42",
"J.	c #DE9F72",
"K.	c #A96B53",
"L.	c #79453F",
"M.	c #C17C5D",
"N.	c #D7996F",
"O.	c #D3976E",
"P.	c #B67055",
"Q.	c #D4976E",
"R.	c #D09068",
"S.	c #C07E5E",
"T.	c #AA7259",
"U.	c #75433F",
"V.	c #A1604D",
"W.	c #E1A374",
"X.	c #BA8060",
"Y.	c #B26346",
"Z.	c #C58260",
"`.	c #B06B52",
" +	c #A8654F",
".+	c #CC7B72",
"++	c #A95A3C",
"@+	c #B96A4B",
"#+	c #83493F",
"$+	c #8D5042",
"%+	c #C67D5A",
"&+	c #DF9B6C",
"*+	c #9A5E4A",
"=+	c #B76C50",
"-+	c #894F42",
";+	c #CA825D",
">+	c #945545",
",+	c #BA6F52",
"'+	c #A9634C",
")+	c #9B5A47",
"!+	c #CC7852",
"~+	c #936151",
"{+	c #BB817E",
"]+	c #DE7243",
"^+	c #E26835",
"/+	c #CC6844",
"(+	c #C45F44",
"_+	c #D27C56",
":+	c #936E53",
"<+	c #A46270",
"[+	c #C55D3F",
"}+	c #D35D36",
"|+	c #CB5D3C",
"1+	c #C66143",
"2+	c #C35F44",
"3+	c #B84E40",
"4+	c #BF523A",
"5+	c #7C574F",
"6+	c #B06D75",
"7+	c #DE703E",
"8+	c #D67548",
"9+	c #E8753C",
"0+	c #E4753E",
"a+	c #D4754A",
"b+	c #CE7953",
"c+	c #CF7851",
"d+	c #DF7542",
"e+	c #D87546",
"f+	c #CD7D58",
"g+	c #CD7954",
"h+	c #E07541",
"i+	c #C87D5C",
"j+	c #CE6B45",
"k+	c #835A51",
"l+	c #CC5F3C",
"m+	c #D27147",
"n+	c #DC7544",
"o+	c #DA7545",
"p+	c #D1764D",
"q+	c #D2764D",
"r+	c #D27349",
"s+	c #D1774E",
"t+	c #D2764C",
"u+	c #A56270",
"v+	c #A93838",
"w+	c #B94A39",
"x+	c #BC4E39",
"y+	c #B74839",
"z+	c #AA3939",
"A+	c #7E574F",
"B+	c #BD908D",
"C+	c #926E8C",
"D+	c #C0C1C5",
"E+	c #5F5750",
"F+	c #82759A",
". . . + @ @ # # # # # # # # # # # $ $ $ % % % # # # & & & # # # # # # # # # # # # # # # # # # # # # # # # # # # # # * * = - - - ",
". . . + @ @ # # # # # # # # # # # $ $ $ % % % # # # & & & # # # # # # # # # # # # # # # # # # # # # # # # # # # # # * * = - - - ",
". . . + @ @ # # # # # # # # # # # $ $ $ % % % # # # & & & # # # # # # # # # # # # # # # # # # # # # # # # # # # # # * * = - - - ",
"; ; ; > > > , , , , , , , , , , , , , , , , , , , , , , , , , , , , , , , , , , , , , , , , , , , , , , , , , ' ' ' ) ) ) ! ! ! ",
"~ ~ ~ > > > , , , , , , , , , , , , , , , , , , , , , , , , , , , , , , , , , , , , , , , , , , , , , , , , , ' ' ' ) ) ) { { { ",
"~ ~ ~ > > > , , , , , , , , , , , , , , , , , , , , , , , , , , , , , , , , , , , , , , , , , , , , , , , , , ' ' ' ) ) ) { { { ",
"~ ~ ~ ] ] ] ^ ^ ^ , , , , , , , , , , , / / / ( ( ( _ _ _ : : : : : : < < < [ [ [ } } } | | | 1 1 2 2 2 3 3 3 4 4 4 ) ) ) { { { ",
"~ ~ ~ ] ] ] ^ ^ ^ , , , , , , , , , , , / / / ( ( ( _ _ _ : : : : : : < < < [ [ [ } } } | | | 1 1 2 2 2 3 3 3 4 4 4 ) ) ) { { { ",
"~ ~ ~ ] ] ] ^ ^ ^ , , , , , , , , , , , / / / ( ( ( _ _ _ : : : : : : < < < [ [ [ } } } | | | 1 1 2 2 2 3 3 3 4 4 4 ) ) ) { { { ",
"~ ~ ~ ] ] ] 5 5 5 6 6 6 7 7 7 6 6 8 8 8 9 9 9 0 0 0 a a a b b b c c c d d d e e e f f f g g g h h i i i j j j k k k l l l { { { ",
"~ ~ ~ ] ] ] 5 5 5 6 6 6 7 7 7 6 6 8 8 8 9 9 9 0 0 0 a a a b b b c c c d d d e e e f f f g g g h h i i i j j j k k k l l l { { { ",
"~ ~ ~ ] ] ] 5 5 5 6 6 6 7 7 7 6 6 8 8 8 9 9 9 0 0 0 a a a b b b c c c d d d e e e f f f g g g h h i i i j j j k k k l l l { { { ",
"~ ~ ~ m m m n n n h h h o o o h h p p p q q q r r r s s s t t t u u u u u u v v v w w w x x x h h y y y z z z A A A B B B { { { ",
"~ ~ ~ m m m n n n h h h o o o h h p p p q q q r r r s s s t t t u u u u u u v v v w w w x x x h h y y y z z z A A A B B B { { { ",
"~ ~ ~ m m m n n n h h h o o o h h p p p q q q r r r s s s t t t u u u u u u v v v w w w x x x h h y y y z z z A A A B B B { { { ",
"~ ~ ~ C C C D D D h h h h h h E E F F F q q q G G G H H H I I I h h h u u u v v v J J J K K K h h L L L M M M N N N B B B { { { ",
"~ ~ ~ C C C D D D h h h h h h E E F F F q q q G G G H H H I I I h h h u u u v v v J J J K K K h h L L L M M M N N N B B B { { { ",
"~ ~ ~ O O O P P P Q Q Q R R R S S T T T U U U V V V W W W X X X Y Y Y Z Z Z ` ` `  . . .......Q Q +.+.+.D D D @.@.@.B B B { { { ",
"~ ~ ~ O O O P P P Q Q Q R R R S S T T T U U U V V V W W W X X X Y Y Y Z Z Z ` ` `  . . .......Q Q +.+.+.D D D @.@.@.B B B { { { ",
"~ ~ ~ O O O P P P Q Q Q R R R S S T T T U U U V V V W W W X X X Y Y Y Z Z Z ` ` `  . . .......Q Q +.+.+.D D D @.@.@.B B B { { { ",
"#.#.#.$.$.$.%.%.%.&.&.&.%.%.%.&.&.*.*.*.=.=.=.-.-.-.;.;.;.;.;.;.>.>.>.,.,.,.'.'.'.).).).;.;.;.&.&.!.!.!.~.~.~.{.{.{.B B B { { { ",
"#.#.#.$.$.$.%.%.%.&.&.&.%.%.%.&.&.*.*.*.=.=.=.-.-.-.;.;.;.;.;.;.>.>.>.,.,.,.'.'.'.).).).;.;.;.&.&.!.!.!.~.~.~.{.{.{.B B B { { { ",
"#.#.#.$.$.$.%.%.%.&.&.&.%.%.%.&.&.*.*.*.=.=.=.-.-.-.;.;.;.;.;.;.>.>.>.,.,.,.'.'.'.).).).;.;.;.&.&.!.!.!.~.~.~.{.{.{.B B B { { { ",
"~ ~ ~ O O O ;.;.;.].].].^.^.^././.(.(.(._._._.h h h :.:.:.&.&.&.+.+.+.<.<.<.h h h h h h 1 1 1 %.%.[.[.[.}.}.}.|.|.|.B B B { { { ",
"~ ~ ~ O O O ;.;.;.].].].^.^.^././.(.(.(._._._.h h h :.:.:.&.&.&.+.+.+.<.<.<.h h h h h h 1 1 1 %.%.[.[.[.}.}.}.|.|.|.B B B { { { ",
"~ ~ ~ O O O ;.;.;.].].].^.^.^././.(.(.(._._._.h h h :.:.:.&.&.&.+.+.+.<.<.<.h h h h h h 1 1 1 %.%.[.[.[.}.}.}.|.|.|.B B B { { { ",
"1.1.1.2.2.2.......h h h 3.3.3.4.4.` ` ` 5.5.5.h h h 6.6.6.;.;.;.7.7.7.8.8.8.9.9.9.0.0.0.a.a.a.%.%.J J J b.b.b.c.c.c.B B B { { { ",
"1.1.1.2.2.2.......h h h 3.3.3.4.4.` ` ` 5.5.5.h h h 6.6.6.;.;.;.7.7.7.8.8.8.9.9.9.0.0.0.a.a.a.%.%.J J J b.b.b.c.c.c.B B B { { { ",
"1.1.1.2.2.2.......h h h 3.3.3.4.4.` ` ` 5.5.5.h h h 6.6.6.;.;.;.7.7.7.8.8.8.9.9.9.0.0.0.a.a.a.%.%.J J J b.b.b.c.c.c.B B B { { { ",
"d.d.d.e.e.e.f.f.f.h h h g.g.g.h.h.v v v i.i.i.j.j.j.h h h k.k.k.l.l.l.7.7.7.m.m.m.n.n.n.` ` ` q q o.o.o.7.7.7.p.p.p.q.q.q.{ { { ",
"d.d.d.e.e.e.f.f.f.h h h g.g.g.h.h.v v v i.i.i.j.j.j.h h h k.k.k.l.l.l.7.7.7.m.m.m.n.n.n.` ` ` q q o.o.o.7.7.7.p.p.p.q.q.q.{ { { ",
"d.d.d.e.e.e.f.f.f.h h h g.g.g.h.h.v v v i.i.i.j.j.j.h h h k.k.k.l.l.l.7.7.7.m.m.m.n.n.n.` ` ` q q o.o.o.7.7.7.p.p.p.q.q.q.{ { { ",
"~ ~ ~ O O O r.r.r.s.s.s.h h h /./.t.t.t.p.p.p.u.u.u.y y y v.v.v.w.w.w.|.|.|.|.|.|.x.x.x.y.y.y.p p |.|.|.z.z.z.v v v A.A.A.{ { { ",
"~ ~ ~ O O O r.r.r.s.s.s.h h h /./.t.t.t.p.p.p.u.u.u.y y y v.v.v.w.w.w.|.|.|.|.|.|.x.x.x.y.y.y.p p |.|.|.z.z.z.v v v A.A.A.{ { { ",
"~ ~ ~ O O O r.r.r.s.s.s.h h h /./.t.t.t.p.p.p.u.u.u.y y y v.v.v.w.w.w.|.|.|.|.|.|.x.x.x.y.y.y.p p |.|.|.z.z.z.v v v A.A.A.{ { { ",
"~ ~ ~ O O O m.m.m.J J J B.B.B.C.C.J J J v.v.v.D.D.D.E.E.E.&.&.&.F.F.F.G.G.G.h h h H.H.H.I.I.I.h h J.J.J.K.K.K.v v v A.A.A.{ { { ",
"~ ~ ~ O O O m.m.m.J J J B.B.B.C.C.J J J v.v.v.D.D.D.E.E.E.&.&.&.F.F.F.G.G.G.h h h H.H.H.I.I.I.h h J.J.J.K.K.K.v v v A.A.A.{ { { ",
"~ ~ ~ O O O m.m.m.J J J B.B.B.C.C.J J J v.v.v.D.D.D.E.E.E.&.&.&.F.F.F.G.G.G.h h h H.H.H.I.I.I.h h J.J.J.K.K.K.v v v A.A.A.{ { { ",
"~ ~ ~ O O O %.%.%.L.L.L.).).).M.M.L L L N.N.N.O.O.O.P.P.P.Q.Q.Q.R.R.R.S.S.S.T.T.T.U.U.U.V.V.V.h h W.W.W.X.X.X.;.;.;.Y.Y.Y.{ { { ",
"~ ~ ~ O O O %.%.%.L.L.L.).).).M.M.L L L N.N.N.O.O.O.P.P.P.Q.Q.Q.R.R.R.S.S.S.T.T.T.U.U.U.V.V.V.h h W.W.W.X.X.X.;.;.;.Y.Y.Y.{ { { ",
"~ ~ ~ O O O %.%.%.L.L.L.).).).M.M.L L L N.N.N.O.O.O.P.P.P.Q.Q.Q.R.R.R.S.S.S.T.T.T.U.U.U.V.V.V.h h W.W.W.X.X.X.;.;.;.Y.Y.Y.{ { { ",
"~ ~ ~ O O O r.r.r.h h h %.%.%.H.H.h h h Z.Z.Z.I.I.I.`.`.`.h h h h h h h h h y y y D.D.D. + + +%.%.h h h /././.%.%.%.B B B { { { ",
"~ ~ ~ O O O r.r.r.h h h %.%.%.H.H.h h h Z.Z.Z.I.I.I.`.`.`.h h h h h h h h h y y y D.D.D. + + +%.%.h h h /././.%.%.%.B B B { { { ",
"~ ~ ~ O O O r.r.r.h h h %.%.%.H.H.h h h Z.Z.Z.I.I.I.`.`.`.h h h h h h h h h y y y D.D.D. + + +%.%.h h h /././.%.%.%.B B B { { { ",
".+.+.+++++++@+@+@+#+#+#+$+$+$+%+%+&+&+&+&+&+&+*+*+*+=+=+=+-+-+-+&+&+&+&+&+&+;+;+;+>+>+>+#+#+#+,+,+,+,+,+'+'+'+)+)+)+!+!+!+~+~+~+",
".+.+.+++++++@+@+@+#+#+#+$+$+$+%+%+&+&+&+&+&+&+*+*+*+=+=+=+-+-+-+&+&+&+&+&+&+;+;+;+>+>+>+#+#+#+,+,+,+,+,+'+'+'+)+)+)+!+!+!+~+~+~+",
".+.+.+++++++@+@+@+#+#+#+$+$+$+%+%+&+&+&+&+&+&+*+*+*+=+=+=+-+-+-+&+&+&+&+&+&+;+;+;+>+>+>+#+#+#+,+,+,+,+,+'+'+'+)+)+)+!+!+!+~+~+~+",
"{+{+{+]+]+]+^+^+^+/+/+/+/+/+/+/+/+/+/+/+/+/+/+/+/+/+/+/+/+/+/+/+/+/+/+/+/+/+/+/+/+/+/+/+/+/+/+/+/+(+(+(+/+/+/+/+/+/+_+_+_+:+:+:+",
"{+{+{+]+]+]+^+^+^+/+/+/+/+/+/+/+/+/+/+/+/+/+/+/+/+/+/+/+/+/+/+/+/+/+/+/+/+/+/+/+/+/+/+/+/+/+/+/+/+(+(+(+/+/+/+/+/+/+_+_+_+:+:+:+",
"<+<+<+> > > [+[+[+[+[+[+[+[+[+[+[+[+[+[+[+[+[+[+[+[+}+}+}+[+[+[+[+[+[+|+|+|+1+1+1+2+2+2+[+[+[+}+}+3+3+3+[+[+[+[+[+[+4+4+4+5+5+5+",
"<+<+<+> > > [+[+[+[+[+[+[+[+[+[+[+[+[+[+[+[+[+[+[+[+}+}+}+[+[+[+[+[+[+|+|+|+1+1+1+2+2+2+[+[+[+}+}+3+3+3+[+[+[+[+[+[+4+4+4+5+5+5+",
"<+<+<+> > > [+[+[+[+[+[+[+[+[+[+[+[+[+[+[+[+[+[+[+[+}+}+}+[+[+[+[+[+[+|+|+|+1+1+1+2+2+2+[+[+[+}+}+3+3+3+[+[+[+[+[+[+4+4+4+5+5+5+",
"6+6+6+7+7+7+8+8+8+9+9+9+0+0+0+a+a+b+b+b+c+c+c+a+a+a+d+d+d+a+a+a+a+a+a+e+e+e+f+f+f+g+g+g+a+a+a+h+h+i+i+i+a+a+a+a+a+a+j+j+j+k+k+k+",
"6+6+6+7+7+7+8+8+8+9+9+9+0+0+0+a+a+b+b+b+c+c+c+a+a+a+d+d+d+a+a+a+a+a+a+e+e+e+f+f+f+g+g+g+a+a+a+h+h+i+i+i+a+a+a+a+a+a+j+j+j+k+k+k+",
"6+6+6+7+7+7+8+8+8+9+9+9+0+0+0+a+a+b+b+b+c+c+c+a+a+a+d+d+d+a+a+a+a+a+a+e+e+e+f+f+f+g+g+g+a+a+a+h+h+i+i+i+a+a+a+a+a+a+j+j+j+k+k+k+",
"~ ~ ~ l+l+l+m+m+m+n+n+n+o+o+o+a+a+p+p+p+q+q+q+a+a+a+a+a+a+r+r+r+[+[+[+a+a+a+s+s+s+t+t+t+a+a+a+a+a+c+c+c+a+a+a+a+a+a+a+a+a+{ { { ",
"~ ~ ~ l+l+l+m+m+m+n+n+n+o+o+o+a+a+p+p+p+q+q+q+a+a+a+a+a+a+r+r+r+[+[+[+a+a+a+s+s+s+t+t+t+a+a+a+a+a+c+c+c+a+a+a+a+a+a+a+a+a+{ { { ",
"~ ~ ~ l+l+l+m+m+m+n+n+n+o+o+o+a+a+p+p+p+q+q+q+a+a+a+a+a+a+r+r+r+[+[+[+a+a+a+s+s+s+t+t+t+a+a+a+a+a+c+c+c+a+a+a+a+a+a+a+a+a+{ { { ",
"u+u+u+v+v+v+w+w+w+x+x+x+y+y+y+z+z+x+x+x+x+x+x+x+x+x+x+x+x+x+x+x+, , , x+x+x+x+x+x+x+x+x+x+x+x+x+x+x+x+x+x+x+x+x+x+x+x+x+x+A+A+A+",
"u+u+u+v+v+v+w+w+w+x+x+x+y+y+y+z+z+x+x+x+x+x+x+x+x+x+x+x+x+x+x+x+, , , x+x+x+x+x+x+x+x+x+x+x+x+x+x+x+x+x+x+x+x+x+x+x+x+x+x+A+A+A+",
"B+B+B+v+v+v+w+w+w+x+x+x+y+y+y+z+z+x+x+x+x+x+x+x+x+x+x+x+x+x+x+x+, , , x+x+x+x+x+x+x+x+x+x+x+x+x+x+x+x+x+x+x+x+x+x+x+x+x+x+C+C+C+",
"D+D+D+D+E+E+E+E+E+E+E+E+E+E+E+E+E+E+E+E+E+E+E+E+E+E+E+E+E+E+E+E+E+E+E+E+E+E+E+E+E+E+E+E+E+E+E+E+E+E+E+E+E+E+E+E+E+E+E+E+F+F+F+F+",
"D+D+D+D+E+E+E+E+E+E+E+E+E+E+E+E+E+E+E+E+E+E+E+E+E+E+E+E+E+E+E+E+E+E+E+E+E+E+E+E+E+E+E+E+E+E+E+E+E+E+E+E+E+E+E+E+E+E+E+E+F+F+F+F+",
"D+D+D+D+E+E+E+E+E+E+E+E+E+E+E+E+E+E+E+E+E+E+E+E+E+E+E+E+E+E+E+E+E+E+E+E+E+E+E+E+E+E+E+E+E+E+E+E+E+E+E+E+E+E+E+E+E+E+E+E+F+F+F+F+"};
