/* XPM */
static char * player_xpm[] = {
"64 64 8 1",
" 	c None",
".	c #C0C1C5",
"+	c #82759A",
"@	c #A95238",
"#	c #FFA108",
"$	c #5F5750",
"%	c #FEEB2C",
"&	c #FF074E",
"....++++++++++++@@@@@@@@################@@@@@@@@++++++++++++....",
"....++++++++++++@@@@@@@@################@@@@@@@@++++++++++++....",
"....++++++++++++@@@@@@@@################@@@@@@@@++++++++++++....",
"....++++++++++++@@@@@@@@################@@@@@@@@++++++++++++....",
"++++....++++++++@@@@@@@@################@@@@@@@@++++++++....$$$$",
"++++....++++++++@@@@@@@@################@@@@@@@@++++++++....$$$$",
"++++....++++++++@@@@@@@@################@@@@@@@@++++++++....$$$$",
"++++....++++++++@@@@@@@@################@@@@@@@@++++++++....$$$$",
"++++++++@@@@@@@@%%%%%%%%%%%%%%%%%%%%%%%%%%%%%%%%@@@@@@@@$$$$$$$$",
"++++++++@@@@@@@@%%%%%%%%%%%%%%%%%%%%%%%%%%%%%%%%@@@@@@@@$$$$$$$$",
"++++++++@@@@@@@@%%%%%%%%%%%%%%%%%%%%%%%%%%%%%%%%@@@@@@@@$$$$$$$$",
"++++++++@@@@@@@@%%%%%%%%%%%%%%%%%%%%%%%%%%%%%%%%@@@@@@@@$$$$$$$$",
"++++++++@@@@@@@@%%%%%%%%%%%%%%%%%%%%%%%%%%%%%%%%@@@@@@@@$$$$$$$$",
"++++++++@@@@@@@@%%%%%%%%%%%%%%%%%%%%%%%%%%%%%%%%@@@@@@@@$$$$$$$$",
"++++++++@@@@@@@@%%%%%%%%%%%%%%%%%%%%%%%%%%%%%%%%@@@@@@@@$$$$$$$$",
"++++++++@@@@@@@@%%%%%%%%%%%%%%%%%%%%%%%%%%%%%%%%@@@@@@@@$$$$$$$$",
"########%%%%%%%%&&&&&&&&%%%%%%%%%%%%%%%%&&&&&&&&%%%%%%%%########",
"########%%%%%%%%&&&&&&&&%%%%%%%%%%%%%%%%&&&&&&&&%%%%%%%%########",
"########%%%%%%%%&&&&&&&&%%%%%%%%%%%%%%%%&&&&&&&&%%%%%%%%########",
"########%%%%%%%%&&&&&&&&%%%%%%%%%%%%%%%%&&&&&&&&%%%%%%%%########",
"########%%%%%%%%&&&&&&&&%%%%%%%%%%%%%%%%&&&&&&&&%%%%%%%%########",
"########%%%%%%%%&&&&&&&&%%%%%%%%%%%%%%%%&&&&&&&&%%%%%%%%########",
"########%%%%%%%%&&&&&&&&%%%%%%%%%%%%%%%%&&&&&&&&%%%%%%%%########",
"########%%%%%%%%&&&&&&&&%%%%%%%%%%%%%%%%&&&&&&&&%%%%%%%%########",
"@@@@@@@@%%%%%%%%%%%%%%%%@@@@@@@@@@@@@@@@%%%%%%%%%%%%%%%%@@@@@@@@",
"@@@@@@@@%%%%%%%%%%%%%%%%@@@@@@@@@@@@@@@@%%%%%%%%%%%%%%%%@@@@@@@@",
"@@@@@@@@%%%%%%%%%%%%%%%%@@@@@@@@@@@@@@@@%%%%%%%%%%%%%%%%@@@@@@@@",
"@@@@@@@@%%%%%%%%%%%%%%%%@@@@@@@@@@@@@@@@%%%%%%%%%%%%%%%%@@@@@@@@",
"@@@@@@@@%%%%%%%%%%%%%%%%@@@@@@@@@@@@@@@@%%%%%%%%%%%%%%%%@@@@@@@@",
"@@@@@@@@%%%%%%%%%%%%%%%%@@@@@@@@@@@@@@@@%%%%%%%%%%%%%%%%@@@@@@@@",
"@@@@@@@@%%%%%%%%%%%%%%%%@@@@@@@@@@@@@@@@%%%%%%%%%%%%%%%%@@@@@@@@",
"@@@@@@@@%%%%%%%%%%%%%%%%@@@@@@@@@@@@@@@@%%%%%%%%%%%%%%%%@@@@@@@@",
"########%%%%%%%%@@@@@@@@################@@@@@@@@%%%%%%%%########",
"########%%%%%%%%@@@@@@@@################@@@@@@@@%%%%%%%%########",
"########%%%%%%%%@@@@@@@@################@@@@@@@@%%%%%%%%########",
"########%%%%%%%%@@@@@@@@################@@@@@@@@%%%%%%%%########",
"########%%%%%%%%@@@@@@@@################@@@@@@@@%%%%%%%%########",
"########%%%%%%%%@@@@@@@@################@@@@@@@@%%%%%%%%########",
"########%%%%%%%%@@@@@@@@################@@@@@@@@%%%%%%%%########",
"########%%%%%%%%@@@@@@@@################@@@@@@@@%%%%%%%%########",
"########%%%%%%%%@@@@@@@@################@@@@@@@@%%%%%%%%########",
"########%%%%%%%%@@@@@@@@################@@@@@@@@%%%%%%%%########",
"########%%%%%%%%@@@@@@@@################@@@@@@@@%%%%%%%%########",
"########%%%%%%%%@@@@@@@@################@@@@@@@@%%%%%%%%########",
"########%%%%%%%%@@@@@@@@################@@@@@@@@%%%%%%%%########",
"########%%%%%%%%@@@@@@@@################@@@@@@@@%%%%%%%%########",
"########%%%%%%%%@@@@@@@@################@@@@@@@@%%%%%%%%########",
"########%%%%%%%%@@@@@@@@################@@@@@@@@%%%%%%%%########",
"########%%%%%%%%%%%%%%%%%%%%%%%%%%%%%%%%%%%%%%%%%%%%%%%%########",
"########%%%%%%%%%%%%%%%%%%%%%%%%%%%%%%%%%%%%%%%%%%%%%%%%########",
"########%%%%%%%%%%%%%%%%%%%%%%%%%%%%%%%%%%%%%%%%%%%%%%%%########",
"########%%%%%%%%%%%%%%%%%%%%%%%%%%%%%%%%%%%%%%%%%%%%%%%%########",
"########%%%%%%%%%%%%%%%%%%%%%%%%%%%%%%%%%%%%%%%%%%%%%%%%########",
"########%%%%%%%%%%%%%%%%%%%%%%%%%%%%%%%%%%%%%%%%%%%%%%%%########",
"########%%%%%%%%%%%%%%%%%%%%%%%%%%%%%%%%%%%%%%%%%%%%%%%%########",
"########%%%%%%%%%%%%%%%%%%%%%%%%%%%%%%%%%%%%%%%%%%%%%%%%########",
"++++....@@@@@@@@################################@@@@@@@@++++$$$$",
"++++....@@@@@@@@################################@@@@@@@@++++$$$$",
"++++....@@@@@@@@################################@@@@@@@@++++$$$$",
"++++....@@@@@@@@################################@@@@@@@@++++$$$$",
"....$$$$@@@@@@@@################################@@@@@@@@$$$$++++",
"....$$$$@@@@@@@@################################@@@@@@@@$$$$++++",
"....$$$$@@@@@@@@################################@@@@@@@@$$$$++++",
"....$$$$@@@@@@@@################################@@@@@@@@$$$$++++"};
