/* XPM */
static char * sole_xpm[] = {
"64 64 4 1",
" 	c None",
".	c #C0C1C5",
"+	c #82759A",
"@	c #5F5750",
"....++++++++++++++++++++++++++++++++++++++++++++++++++++++++....",
"....++++++++++++++++++++++++++++++++++++++++++++++++++++++++....",
"....++++++++++++++++++++++++++++++++++++++++++++++++++++++++....",
"....++++++++++++++++++++++++++++++++++++++++++++++++++++++++....",
"++++....++++++++++++++++++++++++++++++++++++++++++++++++....@@@@",
"++++....++++++++++++++++++++++++++++++++++++++++++++++++....@@@@",
"++++....++++++++++++++++++++++++++++++++++++++++++++++++....@@@@",
"++++....++++++++++++++++++++++++++++++++++++++++++++++++....@@@@",
"++++++++................................................@@@@@@@@",
"++++++++................................................@@@@@@@@",
"++++++++................................................@@@@@@@@",
"++++++++................................................@@@@@@@@",
"++++++++................................................@@@@@@@@",
"++++++++................................................@@@@@@@@",
"++++++++................................................@@@@@@@@",
"++++++++................................................@@@@@@@@",
"++++++++................................................@@@@@@@@",
"++++++++................................................@@@@@@@@",
"++++++++................................................@@@@@@@@",
"++++++++................................................@@@@@@@@",
"++++++++................................................@@@@@@@@",
"++++++++................................................@@@@@@@@",
"++++++++................................................@@@@@@@@",
"++++++++................................................@@@@@@@@",
"++++++++................................................@@@@@@@@",
"++++++++................................................@@@@@@@@",
"++++++++................................................@@@@@@@@",
"++++++++................................................@@@@@@@@",
"++++++++................................................@@@@@@@@",
"++++++++................................................@@@@@@@@",
"++++++++................................................@@@@@@@@",
"++++++++................................................@@@@@@@@",
"++++++++................................................@@@@@@@@",
"++++++++................................................@@@@@@@@",
"++++++++................................................@@@@@@@@",
"++++++++................................................@@@@@@@@",
"++++++++................................................@@@@@@@@",
"++++++++................................................@@@@@@@@",
"++++++++................................................@@@@@@@@",
"++++++++................................................@@@@@@@@",
"++++++++................................................@@@@@@@@",
"++++++++................................................@@@@@@@@",
"++++++++................................................@@@@@@@@",
"++++++++................................................@@@@@@@@",
"++++++++................................................@@@@@@@@",
"++++++++................................................@@@@@@@@",
"++++++++................................................@@@@@@@@",
"++++++++................................................@@@@@@@@",
"++++++++................................................@@@@@@@@",
"++++++++................................................@@@@@@@@",
"++++++++................................................@@@@@@@@",
"++++++++................................................@@@@@@@@",
"++++++++................................................@@@@@@@@",
"++++++++................................................@@@@@@@@",
"++++++++................................................@@@@@@@@",
"++++++++................................................@@@@@@@@",
"++++....@@@@@@@@@@@@@@@@@@@@@@@@@@@@@@@@@@@@@@@@@@@@@@@@++++@@@@",
"++++....@@@@@@@@@@@@@@@@@@@@@@@@@@@@@@@@@@@@@@@@@@@@@@@@++++@@@@",
"++++....@@@@@@@@@@@@@@@@@@@@@@@@@@@@@@@@@@@@@@@@@@@@@@@@++++@@@@",
"++++....@@@@@@@@@@@@@@@@@@@@@@@@@@@@@@@@@@@@@@@@@@@@@@@@++++@@@@",
"....@@@@@@@@@@@@@@@@@@@@@@@@@@@@@@@@@@@@@@@@@@@@@@@@@@@@@@@@++++",
"....@@@@@@@@@@@@@@@@@@@@@@@@@@@@@@@@@@@@@@@@@@@@@@@@@@@@@@@@++++",
"....@@@@@@@@@@@@@@@@@@@@@@@@@@@@@@@@@@@@@@@@@@@@@@@@@@@@@@@@++++",
"....@@@@@@@@@@@@@@@@@@@@@@@@@@@@@@@@@@@@@@@@@@@@@@@@@@@@@@@@++++"};
