/* XPM */
static char * exit_img_xpm[] = {
"64 64 4 1",
" 	c None",
".	c #FEEB2C",
"+	c #FFA108",
"@	c #A95238",
"....++++++++++++++++++++++++++++++++++++++++++++++++++++++++....",
"....++++++++++++++++++++++++++++++++++++++++++++++++++++++++....",
"....++++++++++++++++++++++++++++++++++++++++++++++++++++++++....",
"....++++++++++++++++++++++++++++++++++++++++++++++++++++++++....",
"++++....++++++++++++++++++++++++++++++++++++++++++++++++....@@@@",
"++++....++++++++++++++++++++++++++++++++++++++++++++++++....@@@@",
"++++....++++++++++++++++++++++++++++++++++++++++++++++++....@@@@",
"++++....++++++++++++++++++++++++++++++++++++++++++++++++....@@@@",
"++++++++................................................@@@@@@@@",
"++++++++................................................@@@@@@@@",
"++++++++................................................@@@@@@@@",
"++++++++................................................@@@@@@@@",
"++++++++............@@@@@@@@@@@@@@@@@@@@@@@@............@@@@@@@@",
"++++++++............@@@@@@@@@@@@@@@@@@@@@@@@............@@@@@@@@",
"++++++++............@@@@@@@@@@@@@@@@@@@@@@@@............@@@@@@@@",
"++++++++............@@@@@@@@@@@@@@@@@@@@@@@@............@@@@@@@@",
"++++++++........@@@@@@@@@@@@@@@@@@@@@@@@@@@@@@@@........@@@@@@@@",
"++++++++........@@@@@@@@@@@@@@@@@@@@@@@@@@@@@@@@........@@@@@@@@",
"++++++++........@@@@@@@@@@@@@@@@@@@@@@@@@@@@@@@@........@@@@@@@@",
"++++++++........@@@@@@@@@@@@@@@@@@@@@@@@@@@@@@@@........@@@@@@@@",
"++++++++........@@@@@@@@................@@@@@@@@........@@@@@@@@",
"++++++++........@@@@@@@@................@@@@@@@@........@@@@@@@@",
"++++++++........@@@@@@@@................@@@@@@@@........@@@@@@@@",
"++++++++........@@@@@@@@................@@@@@@@@........@@@@@@@@",
"++++++++........@@@@@@@@................@@@@@@@@........@@@@@@@@",
"++++++++........@@@@@@@@................@@@@@@@@........@@@@@@@@",
"++++++++........@@@@@@@@................@@@@@@@@........@@@@@@@@",
"++++++++........@@@@@@@@................@@@@@@@@........@@@@@@@@",
"++++++++............................@@@@@@@@@@@@........@@@@@@@@",
"++++++++............................@@@@@@@@@@@@........@@@@@@@@",
"++++++++............................@@@@@@@@@@@@........@@@@@@@@",
"++++++++............................@@@@@@@@@@@@........@@@@@@@@",
"++++++++....................@@@@@@@@@@@@@@@@............@@@@@@@@",
"++++++++....................@@@@@@@@@@@@@@@@............@@@@@@@@",
"++++++++....................@@@@@@@@@@@@@@@@............@@@@@@@@",
"++++++++....................@@@@@@@@@@@@@@@@............@@@@@@@@",
"++++++++....................@@@@@@@@....................@@@@@@@@",
"++++++++....................@@@@@@@@....................@@@@@@@@",
"++++++++....................@@@@@@@@....................@@@@@@@@",
"++++++++....................@@@@@@@@....................@@@@@@@@",
"++++++++................................................@@@@@@@@",
"++++++++................................................@@@@@@@@",
"++++++++................................................@@@@@@@@",
"++++++++................................................@@@@@@@@",
"++++++++....................@@@@@@@@....................@@@@@@@@",
"++++++++....................@@@@@@@@....................@@@@@@@@",
"++++++++....................@@@@@@@@....................@@@@@@@@",
"++++++++....................@@@@@@@@....................@@@@@@@@",
"++++++++....................@@@@@@@@....................@@@@@@@@",
"++++++++....................@@@@@@@@....................@@@@@@@@",
"++++++++....................@@@@@@@@....................@@@@@@@@",
"++++++++....................@@@@@@@@....................@@@@@@@@",
"++++++++................................................@@@@@@@@",
"++++++++................................................@@@@@@@@",
"++++++++................................................@@@@@@@@",
"++++++++................................................@@@@@@@@",
"++++....@@@@@@@@@@@@@@@@@@@@@@@@@@@@@@@@@@@@@@@@@@@@@@@@++++@@@@",
"++++....@@@@@@@@@@@@@@@@@@@@@@@@@@@@@@@@@@@@@@@@@@@@@@@@++++@@@@",
"++++....@@@@@@@@@@@@@@@@@@@@@@@@@@@@@@@@@@@@@@@@@@@@@@@@++++@@@@",
"++++....@@@@@@@@@@@@@@@@@@@@@@@@@@@@@@@@@@@@@@@@@@@@@@@@++++@@@@",
"....@@@@@@@@@@@@@@@@@@@@@@@@@@@@@@@@@@@@@@@@@@@@@@@@@@@@@@@@++++",
"....@@@@@@@@@@@@@@@@@@@@@@@@@@@@@@@@@@@@@@@@@@@@@@@@@@@@@@@@++++",
"....@@@@@@@@@@@@@@@@@@@@@@@@@@@@@@@@@@@@@@@@@@@@@@@@@@@@@@@@++++",
"....@@@@@@@@@@@@@@@@@@@@@@@@@@@@@@@@@@@@@@@@@@@@@@@@@@@@@@@@++++"};
