/* XPM */
static char * item_2_xpm[] = {
"64 64 466 2",
"  	c None",
". 	c #C0C1C5",
"+ 	c #82759A",
"@ 	c #8D7497",
"# 	c #D37349",
"$ 	c #CB6643",
"% 	c #D4754A",
"& 	c #D37449",
"* 	c #E58D46",
"= 	c #E38A46",
"- 	c #D06F47",
"; 	c #C86241",
"> 	c #C9674D",
", 	c #8B7898",
"' 	c #977590",
") 	c #D2744F",
"! 	c #D77E4E",
"~ 	c #D2774C",
"{ 	c #CB6B48",
"] 	c #C56044",
"^ 	c #CC6C46",
"/ 	c #D47549",
"( 	c #D37F59",
"_ 	c #957692",
": 	c #97708C",
"< 	c #C9735B",
"[ 	c #DA8652",
"} 	c #E1A05F",
"| 	c #C46C4E",
"1 	c #B44F43",
"2 	c #B75143",
"3 	c #CB7650",
"4 	c #E6AB63",
"5 	c #E5A661",
"6 	c #E4A25F",
"7 	c #D58957",
"8 	c #CF7E54",
"9 	c #D88150",
"0 	c #CD6A45",
"a 	c #C57364",
"b 	c #5F5750",
"c 	c #9A7289",
"d 	c #C06559",
"e 	c #CB6743",
"f 	c #DA8853",
"g 	c #E9B467",
"h 	c #DEA463",
"i 	c #AE4842",
"j 	c #BA5342",
"k 	c #BD4F3C",
"l 	c #AD413D",
"m 	c #EFC56F",
"n 	c #E7AD64",
"o 	c #E8AF65",
"p 	c #EBBA6A",
"q 	c #D99B60",
"r 	c #CA6555",
"s 	c #B24E45",
"t 	c #C7714F",
"u 	c #D17048",
"v 	c #C47060",
"w 	c #957890",
"x 	c #C3AEAD",
"y 	c #C87968",
"z 	c #CE8672",
"A 	c #C4B8B7",
"B 	c #9A748E",
"C 	c #C6B4B4",
"D 	c #D08369",
"E 	c #D06E47",
"F 	c #B84D3D",
"G 	c #B75343",
"H 	c #C77853",
"I 	c #DFA563",
"J 	c #AF4A43",
"K 	c #B4493E",
"L 	c #C75049",
"M 	c #AC3A3C",
"N 	c #E6A862",
"O 	c #EBB869",
"P 	c #C47050",
"Q 	c #C1524C",
"R 	c #B54541",
"S 	c #E8B065",
"T 	c #D88351",
"U 	c #D27148",
"V 	c #C98472",
"W 	c #C0BBBC",
"X 	c #715F53",
"Y 	c #987A90",
"Z 	c #D98952",
"` 	c #DD915B",
" .	c #BA5140",
"..	c #AE4741",
"+.	c #BE5641",
"@.	c #C47352",
"#.	c #D28F5B",
"$.	c #AB403D",
"%.	c #AA383B",
"&.	c #D17E53",
"*.	c #B85C49",
"=.	c #B75948",
"-.	c #CF8859",
";.	c #E9B96A",
">.	c #BF674E",
",.	c #B23B3D",
"'.	c #E7B469",
").	c #EEC46E",
"!.	c #D27349",
"~.	c #CD715D",
"{.	c #C66246",
"].	c #DB8853",
"^.	c #C36B4E",
"/.	c #BD5441",
"(.	c #A63638",
"_.	c #BF543F",
":.	c #B75845",
"<.	c #B14E45",
"[.	c #C15740",
"}.	c #CA5C4A",
"|.	c #CA5C54",
"1.	c #E8B066",
"2.	c #E5934D",
"3.	c #D77949",
"4.	c #C86141",
"5.	c #927592",
"6.	c #E18748",
"7.	c #BD5943",
"8.	c #B14E44",
"9.	c #A73A3A",
"0.	c #C16C4D",
"a.	c #E7AE64",
"b.	c #E4A360",
"c.	c #BE503F",
"d.	c #BD483E",
"e.	c #B3373C",
"f.	c #D88F5B",
"g.	c #E6B469",
"h.	c #BC584C",
"i.	c #B44F44",
"j.	c #BC614A",
"k.	c #E7B76A",
"l.	c #EDC16D",
"m.	c #E5944E",
"n.	c #D07349",
"o.	c #755F55",
"p.	c #D07858",
"q.	c #D78150",
"r.	c #D58C59",
"s.	c #DB9F61",
"t.	c #CF8759",
"u.	c #EABB6B",
"v.	c #E8B96A",
"w.	c #B64141",
"x.	c #C7524F",
"y.	c #BA4E44",
"z.	c #DFA061",
"A.	c #C06B4F",
"B.	c #CE5E57",
"C.	c #C05640",
"D.	c #B95342",
"E.	c #C87A54",
"F.	c #EAB668",
"G.	c #ECBC6B",
"H.	c #D8814F",
"I.	c #B6694A",
"J.	c #C86C58",
"K.	c #CA7352",
"L.	c #BE524C",
"M.	c #B34A42",
"N.	c #C67753",
"O.	c #E8B76A",
"P.	c #E8B166",
"Q.	c #D58558",
"R.	c #BE534D",
"S.	c #B74F43",
"T.	c #CD7950",
"U.	c #E5AB63",
"V.	c #CC8257",
"W.	c #BA5343",
"X.	c #C0574E",
"Y.	c #E19F5D",
"Z.	c #D58858",
"`.	c #E29C5D",
" +	c #CC6844",
".+	c #B05D45",
"++	c #C16352",
"@+	c #B44F47",
"#+	c #C34F4C",
"$+	c #C2504D",
"%+	c #B9534C",
"&+	c #D9945C",
"*+	c #EEC36E",
"=+	c #E7AF65",
"-+	c #C25644",
";+	c #C34F4D",
">+	c #BE5142",
",+	c #BE513D",
"'+	c #DB8D56",
")+	c #E9B367",
"!+	c #EBB96A",
"~+	c #EBBB6A",
"{+	c #DDA363",
"]+	c #B35246",
"^+	c #C45F50",
"/+	c #DB995E",
"(+	c #E0A260",
"_+	c #C66042",
":+	c #B53C3C",
"<+	c #C45C48",
"[+	c #B6674A",
"}+	c #DF8344",
"|+	c #B75148",
"1+	c #CA5A53",
"2+	c #B44946",
"3+	c #B24B45",
"4+	c #DD9F61",
"5+	c #ECBE6C",
"6+	c #BF5341",
"7+	c #C05540",
"8+	c #DB8F57",
"9+	c #ECBD6B",
"0+	c #EDC06D",
"a+	c #DFA764",
"b+	c #E1AA65",
"c+	c #D68855",
"d+	c #BF533E",
"e+	c #B53D3C",
"f+	c #E08647",
"g+	c #B96D4C",
"h+	c #E78F46",
"i+	c #D68957",
"j+	c #B24F46",
"k+	c #B04D44",
"l+	c #D5935D",
"m+	c #E4A661",
"n+	c #EEC26D",
"o+	c #E1A461",
"p+	c #B85242",
"q+	c #D99B5F",
"r+	c #E29E5E",
"s+	c #C35D42",
"t+	c #BF5B44",
"u+	c #CE8658",
"v+	c #B85C4A",
"w+	c #A93D3B",
"x+	c #B44F41",
"y+	c #E7AC64",
"z+	c #C5624B",
"A+	c #DF955A",
"B+	c #D37448",
"C+	c #B05F47",
"D+	c #EBBE6C",
"E+	c #B55446",
"F+	c #B14D44",
"G+	c #C16B50",
"H+	c #E7B066",
"I+	c #BE5541",
"J+	c #B34743",
"K+	c #B2373C",
"L+	c #D07650",
"M+	c #BD614B",
"N+	c #B34F46",
"O+	c #A8363A",
"P+	c #C75055",
"Q+	c #C06A4C",
"R+	c #D17148",
"S+	c #C15040",
"T+	c #BC4D3A",
"U+	c #E3A15F",
"V+	c #C65353",
"W+	c #B24140",
"X+	c #CF7C53",
"Y+	c #D15B5B",
"Z+	c #B63E3C",
"`+	c #B0373B",
" @	c #C26E4E",
".@	c #E7B569",
"+@	c #D7925B",
"@@	c #E6B167",
"#@	c #CC584D",
"$@	c #BA4C38",
"%@	c #AF4842",
"&@	c #B54C45",
"*@	c #BB5B49",
"=@	c #D88A57",
"-@	c #CE8256",
";@	c #B84E46",
">@	c #BA5241",
",@	c #B54742",
"'@	c #D38C5A",
")@	c #DB9D60",
"!@	c #D7975E",
"~@	c #DF985B",
"{@	c #C9724E",
"]@	c #C56D4D",
"^@	c #CE8457",
"/@	c #B65040",
"(@	c #B54D3F",
"_@	c #B95E4A",
":@	c #D8975E",
"<@	c #D28555",
"[@	c #D58754",
"}@	c #D18A59",
"|@	c #D3905C",
"1@	c #D5945D",
"2@	c #D38F5B",
"3@	c #D08054",
"4@	c #DA9A5F",
"5@	c #B55345",
"6@	c #B75042",
"7@	c #C6704F",
"8@	c #D27248",
"9@	c #C87158",
"0@	c #BC5441",
"a@	c #B14941",
"b@	c #B14A42",
"c@	c #DCA262",
"d@	c #E0A965",
"e@	c #DFA664",
"f@	c #C0664C",
"g@	c #C47251",
"h@	c #C87551",
"i@	c #CD8357",
"j@	c #B55043",
"k@	c #D57649",
"l@	c #C07547",
"m@	c #C16A53",
"n@	c #E29F5E",
"o@	c #D5915B",
"p@	c #B04C44",
"q@	c #D08959",
"r@	c #E4A662",
"s@	c #EEC26E",
"t@	c #D7985F",
"u@	c #C25853",
"v@	c #BC544C",
"w@	c #B5443A",
"x@	c #C97C55",
"y@	c #B14F45",
"z@	c #B34F44",
"A@	c #D07F52",
"B@	c #E8B86A",
"C@	c #D88D58",
"D@	c #D67849",
"E@	c #C8814A",
"F@	c #EAB869",
"G@	c #A83C3C",
"H@	c #A53438",
"I@	c #EAB568",
"J@	c #BB4A45",
"K@	c #BE684E",
"L@	c #B24D45",
"M@	c #B45447",
"N@	c #E9B96B",
"O@	c #D08A5A",
"P@	c #B04B43",
"Q@	c #C77954",
"R@	c #ECBF6D",
"S@	c #C67653",
"T@	c #D0605E",
"U@	c #B25045",
"V@	c #CD8358",
"W@	c #E0975A",
"X@	c #BA7672",
"Y@	c #D57A4C",
"Z@	c #E19C5C",
"`@	c #B34D45",
" #	c #A63438",
".#	c #AF363B",
"+#	c #AC3F3E",
"@#	c #C96649",
"##	c #AA684B",
"$#	c #B57675",
"%#	c #D2754A",
"&#	c #E29F5D",
"*#	c #C67351",
"=#	c #C4544E",
"-#	c #B84C46",
";#	c #C35850",
">#	c #CE8155",
",#	c #CC7952",
"'#	c #AE3D38",
")#	c #AE363A",
"!#	c #BD5946",
"~#	c #DEA061",
"{#	c #D17248",
"]#	c #A5654C",
"^#	c #AE737A",
"/#	c #D67C4D",
"(#	c #D38052",
"_#	c #C56150",
":#	c #C35B50",
"<#	c #B65847",
"[#	c #A93D3C",
"}#	c #B4493C",
"|#	c #DA965A",
"1#	c #D48F5A",
"2#	c #E2A863",
"3#	c #D07048",
"4#	c #CE6C46",
"5#	c #925C4B",
"6#	c #8B7699",
"7#	c #AF747E",
"8#	c #C9A19C",
"9#	c #DB7E48",
"0#	c #E48E49",
"a#	c #D98A54",
"b#	c #DEA563",
"c#	c #B0433D",
"d#	c #AF3739",
"e#	c #B33B3B",
"f#	c #E6AA62",
"g#	c #BA5E4A",
"h#	c #D17249",
"i#	c #CF6C46",
"j#	c #C8A8A3",
"k#	c #9A624D",
"l#	c #85779B",
"m#	c #C1C1C5",
"n#	c #D5AA95",
"o#	c #DB7F48",
"p#	c #D4774A",
"q#	c #B64C3D",
"r#	c #AC3B38",
"s#	c #B64638",
"t#	c #EDBF6C",
"u#	c #E2A260",
"v#	c #DD9158",
"w#	c #C2A7A5",
"x#	c #C1C2C4",
"y#	c #625A50",
"z#	c #CC9A8F",
"A#	c #D27C4C",
"B#	c #B45246",
"C#	c #E3A05F",
"D#	c #E6AA63",
"E#	c #DD8552",
"F#	c #C9A49C",
"G#	c #B0694D",
"H#	c #D17A48",
"I#	c #DC824C",
"J#	c #A2684E",
"K#	c #B26B4B",
"L#	c #DB784E",
"M#	c #D87B4A",
"N#	c #DF9459",
"O#	c #DE9358",
"P#	c #DD9057",
"Q#	c #DE9359",
"R#	c #E29858",
"S#	c #CF724F",
"T#	c #A86E4C",
"U#	c #BC7949",
"V#	c #DF8447",
"W#	c #CF6D46",
"X#	c #CA6542",
"Y#	c #D87A43",
"Z#	c #CA6543",
"`#	c #C96241",
" $	c #D3794F",
".$	c #AE664C",
"+$	c #AA614A",
"@$	c #A75D49",
"#$	c #A65B48",
"$$	c #A75E49",
". . . . + + + + + + + + + + + @ @ # # $ $ % % % % % & & # # * * = = - - ; ; ; ; ; ; ; ; ; > > , , + + + + + + + + + + + . . . . ",
". . . . + + + + + + + + + + + @ @ # # $ $ % % % % % & & # # * * = = - - ; ; ; ; ; ; ; ; ; > > , , + + + + + + + + + + + . . . . ",
". . . . + + + + + + + + + ' ' ) ) % % ! ! ~ ~ { { { ] ] ^ ^ ! ! ! ! ! ! ! ! ! ! ! ! ! ! ! / / ( ( _ _ + + + + + + + + + . . . . ",
". . . . + + + + + + + + + ' ' ) ) % % ! ! ~ ~ { { { ] ] ^ ^ ! ! ! ! ! ! ! ! ! ! ! ! ! ! ! / / ( ( _ _ + + + + + + + + + . . . . ",
"+ + + + . . . . + + + : : < < % % [ [ } } | | 1 1 1 2 2 3 3 4 4 4 4 5 5 6 6 4 4 4 7 7 8 8 9 9 0 0 a a ' ' + + + . . . . b b b b ",
"+ + + + . . . . + + + : : < < % % [ [ } } | | 1 1 1 2 2 3 3 4 4 4 4 5 5 6 6 4 4 4 7 7 8 8 9 9 0 0 a a ' ' + + + . . . . b b b b ",
"+ + + + . . . . + c c d d e e f f g g h h i i j j j k k l l m m n n o o p p q q q r r s s t t [ [ u u v v w w + . . . . b b b b ",
"+ + + + . . . . + c c d d e e f f g g h h i i j j j k k l l m m n n o o p p q q q r r s s t t [ [ u u v v w w + . . . . b b b b ",
"+ + + + + + + + . x x y y e e f f g g h h i i j j j k k l l m m n n o o p p q q q r r s s t t [ [ u u z z A A . b b b b b b b b ",
"+ + + + + + B B C D D E E F F G G H H I I J J K K K L L M M m m g g N N O O P P P Q Q s s R R S S T T U U V V W X X b b b b b b ",
"+ + + + + + B B C D D E E F F G G H H I I J J K K K L L M M m m g g N N O O P P P Q Q s s R R S S T T U U V V W X X b b b b b b ",
"+ + + + Y Y Z Z ` % %  . .....J J +.+.@.@.#.#.$.$.$.%.%.&.&.m m *.*.=.=.-.-.;.;.;.>.>.,.,.'.'.).).S S [ [ !.!.~.{.{.b b b b b b ",
"+ + + + Y Y Z Z ` % %  . .....J J +.+.@.@.#.#.$.$.$.%.%.&.&.m m *.*.=.=.-.-.;.;.;.>.>.,.,.'.'.).).S S [ [ !.!.~.{.{.b b b b b b ",
"+ + + + = = % % % ].].^.^././.(.(._._.:.:.m m m m m m m m m <.<.[.[.}.}.|.|.8 8 8 p p m m m m m m m m 1.1.2.2.3.3.3.4.4.b b b b ",
"+ + + + = = % % % ].].^.^././.(.(._._.:.:.m m m m m m m m m <.<.[.[.}.}.|.|.8 8 8 p p m m m m m m m m 1.1.2.2.3.3.3.4.4.b b b b ",
"5.5.% % 6.6.f f f g g -.-.7.7.8.8.9.9.0.0.m m m m m a.a.b.b.<.<.c.c.d.d.e.e.f.f.f.g.g.h.h.i.i.j.j.k.k.l.l.4 4 m.m.m.% % n.n.o.o.",
"5.5.% % 6.6.f f f g g -.-.7.7.8.8.9.9.0.0.m m m m m a.a.b.b.<.<.c.c.d.d.e.e.f.f.f.g.g.h.h.i.i.j.j.k.k.l.l.4 4 m.m.m.% % n.n.o.o.",
"p.p.% % q.q.r.r.r.s.s.k.k.t.t.@.@.H H u.u.s.s.s.s.s.v.v.m m @.@.w.w.x.x.y.y.z.z.z.A.A.B.B.C.C.D.D.E.E.F.F.G.G.a.a.a.H.H.E E I.I.",
"p.p.% % q.q.r.r.r.s.s.k.k.t.t.@.@.H H u.u.s.s.s.s.s.v.v.m m @.@.w.w.x.x.y.y.z.z.z.A.A.B.B.C.C.D.D.E.E.F.F.G.G.a.a.a.H.H.E E I.I.",
"J.J.% % K.K.L.L.L.M.M.N.N.O.O.m m P.P.Q.Q.R.R.S.S.S.T.T.U.U.m m V.V.V.V.s.s.m m m A.A.<.<.W.W.X.X.E.E.m m Y.Y.Z.Z.Z.`.`. + +.+.+",
"J.J.% % K.K.L.L.L.M.M.N.N.O.O.m m P.P.Q.Q.R.R.S.S.S.T.T.U.U.m m V.V.V.V.s.s.m m m A.A.<.<.W.W.X.X.E.E.m m Y.Y.Z.Z.Z.`.`. + +.+.+",
"++++ + +@+@+#+#+#+$+$+%+%+&+&+*+*+=+=+-+-+;+;+>+>+>+,+,+'+'+m m 4 4 )+)+!+!+~+~+~+{+{+]+]+s s ^+^+/+/+(+(+_+_+:+:+:+<+<+& & [+[+",
"++++ + +@+@+#+#+#+$+$+%+%+&+&+*+*+=+=+-+-+;+;+>+>+>+,+,+'+'+m m 4 4 )+)+!+!+~+~+~+{+{+]+]+s s ^+^+/+/+(+(+_+_+:+:+:+<+<+& & [+[+",
"++++}+}+|+|+1+1+1+2+2+3+3+4+4+).).5+5+C.C.6+6+7+7+7+[.[.8+8+m m p p 9+9+0+0+n n n 5 5 a+a+a+a+b+b+5+5+c+c+d+d+e+e+e+e.e.f+f+g+g+",
"++++}+}+|+|+1+1+1+2+2+3+3+4+4+).).5+5+C.C.6+6+7+7+7+[.[.8+8+m m p p 9+9+0+0+n n n 5 5 a+a+a+a+b+b+5+5+c+c+d+d+e+e+e+e.e.f+f+g+g+",
"++++}+}+|+|+1+1+1+2+2+3+3+4+4+).).5+5+C.C.6+6+7+7+7+[.[.8+8+m m p p 9+9+0+0+n n n 5 5 a+a+a+a+b+b+5+5+c+c+d+d+e+e+e+e.e.f+f+g+g+",
"++++h+h+i+i+j+j+j+k+k+l+l+m+m+n+n+).).o+o+[.[.p+p+p+q+q+l.l.r+r+s+s+t+t+u+u+*+*+*+n+n+v+v+w+w+x+x+y+y+l.l.z+z+e.e.e.A+A+B+B+C+C+",
"++++h+h+i+i+j+j+j+k+k+l+l+m+m+n+n+).).o+o+[.[.p+p+p+q+q+l.l.r+r+s+s+t+t+u+u+*+*+*+n+n+v+v+w+w+x+x+y+y+l.l.z+z+e.e.e.A+A+B+B+C+C+",
"++++% % b.b.O O O r+r+F.F.D+D+E+E+F+F+G+G+H+H+P.P.P.).).m m <.<.I+I+J+J+K+K+L+L+L+M+M+N+N+O+O+P+P+Q+Q+P.P.r+r+9+9+9+`.`.R+R+.+.+",
"++++% % b.b.O O O r+r+F.F.D+D+E+E+F+F+G+G+H+H+P.P.P.).).m m <.<.I+I+J+J+K+K+L+L+L+M+M+N+N+O+O+P+P+Q+Q+P.P.r+r+9+9+9+`.`.R+R+.+.+",
"++++% % b.b.m m m m m m m :.:.S+S+T+T+|.|.^.^.U+U+U+~+~+m m <.<.@+@+V+V+W+W+X+X+X+M+M+Y+Y+Z+Z+`+`+ @ @m m m m m m m `.`.4.4..+.+",
"++++% % b.b.m m m m m m m :.:.S+S+T+T+|.|.^.^.U+U+U+~+~+m m <.<.@+@+V+V+W+W+X+X+X+M+M+Y+Y+Z+Z+`+`+ @ @m m m m m m m `.`.4.4..+.+",
"++++% % b.b..@.@.@+@+@@@@@:.:.#@#@$@$@<.<.^.^.)+)+)+m m m m E.E.%@%@&@&@*@*@=@=@=@-@-@;@;@>@>@,@,@'@'@9+9+)@)@!@!@!@`.`.e e .+.+",
"++++% % b.b..@.@.@+@+@@@@@:.:.#@#@$@$@<.<.^.^.)+)+)+m m m m E.E.%@%@&@&@*@*@=@=@=@-@-@;@;@>@>@,@,@'@'@9+9+)@)@!@!@!@`.`.e e .+.+",
"++++% % ~@~@{@{@{@K K ]@]@^@^@/@/@(@(@_@_@)@)@:@:@:@<@<@[@[@n n }@}@|@|@a+a+!+!+!+0+0+1@1@2@2@3@3@4 4 4@4@5@5@6@6@6@7@7@8@8@.+.+",
"++++% % ~@~@{@{@{@K K ]@]@^@^@/@/@(@(@_@_@)@)@:@:@:@<@<@[@[@n n }@}@|@|@a+a+!+!+!+0+0+1@1@2@2@3@3@4 4 4@4@5@5@6@6@6@7@7@8@8@.+.+",
"9@9@% % 8+8+0@0@0@a@a@b@b@a+a+c@c@s.s.d@d@e@e@_@_@_@0@0@[.[.f@f@l.l.P.P.O O p p p m m H H g@g@h@h@G.G.i@i@J J j@j@j@<.<.k@k@l@l@",
"9@9@% % 8+8+0@0@0@a@a@b@b@a+a+c@c@s.s.d@d@e@e@_@_@_@0@0@[.[.f@f@l.l.P.P.O O p p p m m H H g@g@h@h@G.G.i@i@J J j@j@j@<.<.k@k@l@l@",
"m@m@% % n@n@o@o@o@p@p@q@q@r@r@s@s@s@s@y+y+t@t@u@u@u@v@v@w@w@<.<.6 6 N N l.l.n+n+n+x@x@y@y@<.<.z@z@A@A@B@B@A.A.<.<.<.C@C@D@D@E@E@",
"m@m@% % n@n@o@o@o@p@p@q@q@r@r@s@s@s@s@y+y+t@t@u@u@u@v@v@w@w@<.<.6 6 N N l.l.n+n+n+x@x@y@y@<.<.z@z@A@A@B@B@A.A.<.<.<.C@C@D@D@E@E@",
"m@m@% % n@n@o@o@o@p@p@q@q@r@r@s@s@s@s@y+y+t@t@u@u@u@v@v@w@w@<.<.6 6 N N l.l.n+n+n+x@x@y@y@<.<.z@z@A@A@B@B@A.A.<.<.<.C@C@D@D@E@E@",
"++++% % b.b.F@F@F@1.1.m m m m m m m m m m t@t@<.<.<.G@G@H@H@<.<.m m m m )+)+I@I@I@A.A.J@J@J@J@<.<.E.E.m m N N 9+9+9+`.`.% % g+g+",
"++++% % b.b.F@F@F@1.1.m m m m m m m m m m t@t@<.<.<.G@G@H@H@<.<.m m m m )+)+I@I@I@A.A.J@J@J@J@<.<.E.E.m m N N 9+9+9+`.`.% % g+g+",
"p.p.% % r+r+l.l.l.m m u.u.K@K@L@L@M@M@N@N@m m O@O@O@v+v+v+v+m m I I P@P@Q@Q@R@R@R@S@S@T@T@<.<.U@U@V@V@m m m m 0+0+0+W@W@4.4.C+C+",
"p.p.% % r+r+l.l.l.m m u.u.K@K@L@L@M@M@N@N@m m O@O@O@v+v+v+v+m m I I P@P@Q@Q@R@R@R@S@S@T@T@<.<.U@U@V@V@m m m m 0+0+0+W@W@4.4.C+C+",
"X@X@% % Y@Y@Z@Z@Z@5+5+E.E.`@`@J@J@<.<.A.A.m m m m m G.G.F@F@m m  # #.#.#+#+#t@t@t@m m H H @.@.V.V.m m m m G.G.W@W@W@E E @#@#####",
"X@X@% % Y@Y@Z@Z@Z@5+5+E.E.`@`@J@J@<.<.A.A.m m m m m G.G.F@F@m m  # #.#.#+#+#t@t@t@m m H H @.@.V.V.m m m m G.G.W@W@W@E E @#@#####",
"+ + $#$## # %#%#%#&#&#*#*#=#=#-#-#;#;#A.A.m m a+a+a+>#>#,#,#m m '#'#)#)#!#!#~#~#~#0+0+1@1@1@1@m m m m G.G.W@W@{#{#{#4.4.]#]#b b ",
"+ + $#$## # %#%#%#&#&#*#*#=#=#-#-#;#;#A.A.m m a+a+a+>#>#,#,#m m '#'#)#)#!#!#~#~#~#0+0+1@1@1@1@m m m m G.G.W@W@{#{#{#4.4.]#]#b b ",
"+ + + + ^#^#- - - /#/#(#(#_#_#s s :#:#{+{+d@d@<#<#<#[#[#}#}#E.E.|#|#1#1#2#2#~+~+~+q@q@U@U@U@U@-.-.~+~+W@W@3#3#4#4#4#5#5#b b b b ",
"+ + + + ^#^#- - - /#/#(#(#_#_#s s :#:#{+{+d@d@<#<#<#[#[#}#}#E.E.|#|#1#1#2#2#~+~+~+q@q@U@U@U@U@-.-.~+~+W@W@3#3#4#4#4#5#5#b b b b ",
"+ + + + 6#6#7#7#8#9#9#0#0#a#a#b#b#d@d@m m t@t@c#c#c#d#d#e#e#<.<.l.l.o o f#f#a.a.a.A.A.<.<.<.<.g#g#W@W@h#h#i#i#j#k#k#b b b b b b ",
"+ + + + 6#6#7#7#8#9#9#0#0#a#a#b#b#d@d@m m t@t@c#c#c#d#d#e#e#<.<.l.l.o o f#f#a.a.a.A.A.<.<.<.<.g#g#W@W@h#h#i#i#j#k#k#b b b b b b ",
"+ + + + + + l#l#m#n#n#o#o#p#p#Z@Z@m m ~+~+3@3@q#q#q#r#r#s#s#<.<.t#t#N N n+n+*+*+*+u#u#]+]+]+]+v#v#- - 4.4.w#w#x#y#y#b b b b b b ",
"+ + + + + + l#l#m#n#n#o#o#p#p#Z@Z@m m ~+~+3@3@q#q#q#r#r#s#s#<.<.t#t#N N n+n+*+*+*+u#u#]+]+]+]+v#v#- - 4.4.w#w#x#y#y#b b b b b b ",
"+ + + + + + + + . . . z#z#A#A#% % Z@Z@n+n+n+n+i@i@i@B#B#B#B#n+n+C#C#n+n+n+n+D#D#D#O O n+n+W@W@3.3.E#E#F#F#. . . b b b b b b b b ",
"+ + + + . . . . b b b G#G#H#H#% % Z@Z@n+n+n+n+i@i@i@B#B#B#B#n+n+C#C#n+n+n+n+D#D#D#O O n+n+W@W@3.3.I#I#J#J#b b b + + + + b b b b ",
"+ + + + . . . . b b b G#G#H#H#% % Z@Z@n+n+n+n+i@i@i@B#B#B#B#n+n+C#C#n+n+n+n+D#D#D#O O n+n+W@W@3.3.I#I#J#J#b b b + + + + b b b b ",
"+ + + + . . . . b b b b b K#K#L#L#M#M#N#N#O#O#P#P#P#P#P#Q#Q#N#N#R#R#P#P#P#P#P#P#P#P#P#N#N#% % S#S#T#T#b b b b b + + + + b b b b ",
"+ + + + . . . . b b b b b K#K#L#L#M#M#N#N#O#O#P#P#P#P#P#Q#Q#N#N#R#R#P#P#P#P#P#P#P#P#P#N#N#% % S#S#T#T#b b b b b + + + + b b b b ",
". . . . b b b b b b b b b b b U#U#V#V#% % W#W#X#X#X# + +4#4#W#W#Y#Y#4.4.4.4.Z#Z#Z#`#`#i#i# $ $T#T#b b b b b b b b b b b + + + + ",
". . . . b b b b b b b b b b b U#U#V#V#% % W#W#X#X#X# + +4#4#W#W#Y#Y#4.4.4.4.Z#Z#Z#`#`#i#i# $ $T#T#b b b b b b b b b b b + + + + ",
". . . . b b b b b b b b b b b b b .$.$.$.$+$+$+$+$+$.$.$@$@$#$#$#$#$#$#$#$#$+$+$+$$$$$#$#$J#J#b b b b b b b b b b b b b + + + + ",
". . . . b b b b b b b b b b b b b .$.$.$.$+$+$+$+$+$.$.$@$@$#$#$#$#$#$#$#$#$+$+$+$$$$$#$#$J#J#b b b b b b b b b b b b b + + + + "};
