/* XPM */
static char * item_1_xpm[] = {
"64 64 83 1",
" 	c None",
".	c #C0C1C5",
"+	c #82759A",
"@	c #5F5750",
"#	c #D2A098",
"$	c #CF9D97",
"%	c #C59595",
"&	c #C7A9A5",
"*	c #BE9898",
"=	c #BE817C",
"-	c #EF9A46",
";	c #CF6D46",
">	c #BB4C38",
",	c #D57749",
"'	c #E39256",
")	c #C0A9AA",
"!	c #A0667A",
"~	c #BB574A",
"{	c #FCAC45",
"]	c #D67849",
"^	c #EB9441",
"/	c #BD6257",
"(	c #7D5C51",
"_	c #976882",
":	c #B84C44",
"<	c #B74B37",
"[	c #75554B",
"}	c #9D6780",
"|	c #F7A545",
"1	c #D87A49",
"2	c #CC6844",
"3	c #D27248",
"4	c #DA7E49",
"5	c #E88E42",
"6	c #7A564C",
"7	c #C0543B",
"8	c #D4754A",
"9	c #F4A145",
"0	c #CE6B45",
"a	c #C1563C",
"b	c #D27349",
"c	c #F9A845",
"d	c #BE523A",
"e	c #A16F82",
"f	c #C55D3F",
"g	c #E99247",
"h	c #E58D47",
"i	c #CE6C46",
"j	c #7E584D",
"k	c #B38383",
"l	c #EA9347",
"m	c #E99D5E",
"n	c #DEB79E",
"o	c #D97C49",
"p	c #876450",
"q	c #A36F80",
"r	c #CB643B",
"s	c #DB7E47",
"t	c #F29E46",
"u	c #CFBDB4",
"v	c #D5BBAC",
"w	c #ED9746",
"x	c #D67743",
"y	c #7E5A4D",
"z	c #D06F47",
"A	c #C4C0C0",
"B	c #CA6543",
"C	c #9D6A80",
"D	c #BC4E39",
"E	c #D17047",
"F	c #CB6643",
"G	c #A27688",
"H	c #D57A54",
"I	c #DB7F49",
"J	c #F0AF6E",
"K	c #C4C0C1",
"L	c #EBA366",
"M	c #CE784E",
"N	c #7D5A51",
"O	c #BD8E82",
"P	c #EBB47F",
"Q	c #CCC5B7",
"R	c #956F4C",
"....++++++++++++++++++++++++++++++++++++++++++++++++++++++++....",
"....++++++++++++++++++++++++++++++++++++++++++++++++++++++++....",
"....++++++++++++++++++++++++++++++++++++++++++++++++++++++++....",
"....++++++++++++++++++++++++++++++++++++++++++++++++++++++++....",
"++++....++++++++++++++++++++++++++++++++++++++++++++++++....@@@@",
"++++....++++++++++++++++++++++++++++++++++++++++++++++++....@@@@",
"++++....++++++++++++++++++++++++++++++++++++++++++++++++....@@@@",
"++++....++++++++++++++++++++++++++++++++++++++++++++++++....@@@@",
"++++++++.......####$$$$%%%%%%%%%%%%%%%%%%####&&&&.......@@@@@@@@",
"++++++++.......####$$$$%%%%%%%%%%%%%%%%%%####&&&&.......@@@@@@@@",
"++++++++.......####$$$$%%%%%%%%%%%%%%%%%%####&&&&.......@@@@@@@@",
"++++++++***====----;;;;>>>>>>>>>>>>>>>>>>,,,,''''====)))@@@@@@@@",
"++++++++***====----;;;;>>>>>>>>>>>>>>>>>>,,,,''''====)))@@@@@@@@",
"++++++++***====----;;;;>>>>>>>>>>>>>>>>>>,,,,''''====)))@@@@@@@@",
"++++++++***====----;;;;>>>>>>>>>>>>>>>>>>,,,,''''====)))@@@@@@@@",
"++++!!!!~~~>>>>{{{{;;;;>>>>>>>>>>>>>>>>>>]]]]^^^^>>>>///((((@@@@",
"++++!!!!~~~>>>>{{{{;;;;>>>>>>>>>>>>>>>>>>]]]]^^^^>>>>///((((@@@@",
"++++!!!!~~~>>>>{{{{;;;;>>>>>>>>>>>>>>>>>>]]]]^^^^>>>>///((((@@@@",
"++++!!!!~~~>>>>{{{{;;;;>>>>>>>>>>>>>>>>>>]]]]^^^^>>>>///((((@@@@",
"____::::>>>>>>>{{{{;;;;>>>>>>>>>>>>>>>>>>]]]]^^^^>>>>>>><<<<[[[[",
"____::::>>>>>>>{{{{;;;;>>>>>>>>>>>>>>>>>>]]]]^^^^>>>>>>><<<<[[[[",
"____::::>>>>>>>{{{{;;;;>>>>>>>>>>>>>>>>>>]]]]^^^^>>>>>>><<<<[[[[",
"____::::>>>>>>>{{{{;;;;>>>>>>>>>>>>>>>>>>]]]]^^^^>>>>>>><<<<[[[[",
"}}}}>>>>>>>>>>>||||1111222>>>>>>>>>>>>33344445555>>>>>>>>>>>6666",
"}}}}>>>>>>>>>>>||||1111222>>>>>>>>>>>>33344445555>>>>>>>>>>>6666",
"}}}}>>>>>>>>>>>||||1111222>>>>>>>>>>>>33344445555>>>>>>>>>>>6666",
"}}}}>>>>>>>777788889999000aaaaaaaaaaaabbbcccc;;;;dddd>>>>>>>6666",
"}}}}>>>>>>>777788889999000aaaaaaaaaaaabbbcccc;;;;dddd>>>>>>>6666",
"}}}}>>>>>>>777788889999000aaaaaaaaaaaabbbcccc;;;;dddd>>>>>>>6666",
"}}}}>>>>>>>777788889999000aaaaaaaaaaaabbbcccc;;;;dddd>>>>>>>6666",
"eeeefffffff33338888gggghhhhhhhhhhhhhhhhhhgggg8888iiiifffffffjjjj",
"eeeefffffff33338888gggghhhhhhhhhhhhhhhhhhgggg8888iiiifffffffjjjj",
"eeeefffffff33338888gggghhhhhhhhhhhhhhhhhhgggg8888iiiifffffffjjjj",
"eeeefffffff33338888gggghhhhhhhhhhhhhhhhhhgggg8888iiiifffffffjjjj",
"kkkklllllllllll8888mmmmnnnnnnnnnnnnnnnnnnggggoooolllllllllllpppp",
"kkkklllllllllll8888mmmmnnnnnnnnnnnnnnnnnnggggoooolllllllllllpppp",
"kkkklllllllllll8888mmmmnnnnnnnnnnnnnnnnnnggggoooolllllllllllpppp",
"kkkklllllllllll8888mmmmnnnnnnnnnnnnnnnnnnggggoooolllllllllllpppp",
"qqqqrrrrrrrssssttttuuuu..................vvvvwwwwxxxxrrrrrrryyyy",
"qqqqrrrrrrrssssttttuuuu..................vvvvwwwwxxxxrrrrrrryyyy",
"qqqqrrrrrrrssssttttuuuu..................vvvvwwwwxxxxrrrrrrryyyy",
"}}}}>>>>>>>zzzz{{{{......................AAAAttttBBBB>>>>>>>6666",
"}}}}>>>>>>>zzzz{{{{......................AAAAttttBBBB>>>>>>>6666",
"}}}}>>>>>>>zzzz{{{{......................AAAAttttBBBB>>>>>>>6666",
"}}}}>>>>>>>zzzz{{{{......................AAAAttttBBBB>>>>>>>6666",
"CCCCDDDDDDDEEEE{{{{......................AAAAttttFFFFDDDDDDD6666",
"CCCCDDDDDDDEEEE{{{{......................AAAAttttFFFFDDDDDDD6666",
"CCCCDDDDDDDEEEE{{{{......................AAAAttttFFFFDDDDDDD6666",
"CCCCDDDDDDDEEEE{{{{......................AAAAttttFFFFDDDDDDD6666",
"GGGGHHHHIIIIIIIJJJJ......................KKKKLLLLIIIIIIIMMMMNNNN",
"GGGGHHHHIIIIIIIJJJJ......................KKKKLLLLIIIIIIIMMMMNNNN",
"GGGGHHHHIIIIIIIJJJJ......................KKKKLLLLIIIIIIIMMMMNNNN",
"GGGGHHHHIIIIIIIJJJJ......................KKKKLLLLIIIIIIIMMMMNNNN",
"++++OOOOPPPPPPP..............................QQQQPPPPPPPRRRR@@@@",
"++++OOOOPPPPPPP..............................QQQQPPPPPPPRRRR@@@@",
"++++OOOOPPPPPPP..............................QQQQPPPPPPPRRRR@@@@",
"++++....@@@@@@@@@@@@@@@@@@@@@@@@@@@@@@@@@@@@@@@@@@@@@@@@++++@@@@",
"++++....@@@@@@@@@@@@@@@@@@@@@@@@@@@@@@@@@@@@@@@@@@@@@@@@++++@@@@",
"++++....@@@@@@@@@@@@@@@@@@@@@@@@@@@@@@@@@@@@@@@@@@@@@@@@++++@@@@",
"++++....@@@@@@@@@@@@@@@@@@@@@@@@@@@@@@@@@@@@@@@@@@@@@@@@++++@@@@",
"....@@@@@@@@@@@@@@@@@@@@@@@@@@@@@@@@@@@@@@@@@@@@@@@@@@@@@@@@++++",
"....@@@@@@@@@@@@@@@@@@@@@@@@@@@@@@@@@@@@@@@@@@@@@@@@@@@@@@@@++++",
"....@@@@@@@@@@@@@@@@@@@@@@@@@@@@@@@@@@@@@@@@@@@@@@@@@@@@@@@@++++",
"....@@@@@@@@@@@@@@@@@@@@@@@@@@@@@@@@@@@@@@@@@@@@@@@@@@@@@@@@++++"};
