/* XPM */
static char * wall_xpm[] = {
"64 64 4 1",
" 	c None",
".	c #FEEB2C",
"+	c #FFA108",
"@	c #A95238",
"....++++++++++++++++++++++++++++++++++++++++++++++++++++++++....",
"....++++++++++++++++++++++++++++++++++++++++++++++++++++++++....",
"....++++++++++++++++++++++++++++++++++++++++++++++++++++++++....",
"....++++++++++++++++++++++++++++++++++++++++++++++++++++++++....",
"++++....++++++++++++++++++++++++++++++++++++++++++++++++....@@@@",
"++++....++++++++++++++++++++++++++++++++++++++++++++++++....@@@@",
"++++....++++++++++++++++++++++++++++++++++++++++++++++++....@@@@",
"++++....++++++++++++++++++++++++++++++++++++++++++++++++....@@@@",
"++++++++................................................@@@@@@@@",
"++++++++................................................@@@@@@@@",
"++++++++................................................@@@@@@@@",
"++++++++................................................@@@@@@@@",
"++++++++....++++++++++++++++++++++++++++++++++++++++....@@@@@@@@",
"++++++++....++++++++++++++++++++++++++++++++++++++++....@@@@@@@@",
"++++++++....++++++++++++++++++++++++++++++++++++++++....@@@@@@@@",
"++++++++....++++++++++++++++++++++++++++++++++++++++....@@@@@@@@",
"++++++++....++++................................@@@@....@@@@@@@@",
"++++++++....++++................................@@@@....@@@@@@@@",
"++++++++....++++................................@@@@....@@@@@@@@",
"++++++++....++++................................@@@@....@@@@@@@@",
"++++++++....++++....++++++++++++++++++++++++....@@@@....@@@@@@@@",
"++++++++....++++....++++++++++++++++++++++++....@@@@....@@@@@@@@",
"++++++++....++++....++++++++++++++++++++++++....@@@@....@@@@@@@@",
"++++++++....++++....++++++++++++++++++++++++....@@@@....@@@@@@@@",
"++++++++....++++....++++................@@@@....@@@@....@@@@@@@@",
"++++++++....++++....++++................@@@@....@@@@....@@@@@@@@",
"++++++++....++++....++++................@@@@....@@@@....@@@@@@@@",
"++++++++....++++....++++................@@@@....@@@@....@@@@@@@@",
"++++++++....++++....++++................@@@@....@@@@....@@@@@@@@",
"++++++++....++++....++++................@@@@....@@@@....@@@@@@@@",
"++++++++....++++....++++................@@@@....@@@@....@@@@@@@@",
"++++++++....++++....++++................@@@@....@@@@....@@@@@@@@",
"++++++++....++++....++++................@@@@....@@@@....@@@@@@@@",
"++++++++....++++....++++................@@@@....@@@@....@@@@@@@@",
"++++++++....++++....++++................@@@@....@@@@....@@@@@@@@",
"++++++++....++++....++++................@@@@....@@@@....@@@@@@@@",
"++++++++....++++....++++................@@@@....@@@@....@@@@@@@@",
"++++++++....++++....++++................@@@@....@@@@....@@@@@@@@",
"++++++++....++++....++++................@@@@....@@@@....@@@@@@@@",
"++++++++....++++....++++................@@@@....@@@@....@@@@@@@@",
"++++++++....++++....++++@@@@@@@@@@@@@@@@@@@@....@@@@....@@@@@@@@",
"++++++++....++++....++++@@@@@@@@@@@@@@@@@@@@....@@@@....@@@@@@@@",
"++++++++....++++....++++@@@@@@@@@@@@@@@@@@@@....@@@@....@@@@@@@@",
"++++++++....++++....++++@@@@@@@@@@@@@@@@@@@@....@@@@....@@@@@@@@",
"++++++++....++++................................@@@@....@@@@@@@@",
"++++++++....++++................................@@@@....@@@@@@@@",
"++++++++....++++................................@@@@....@@@@@@@@",
"++++++++....++++................................@@@@....@@@@@@@@",
"++++++++....++++@@@@@@@@@@@@@@@@@@@@@@@@@@@@@@@@@@@@....@@@@@@@@",
"++++++++....++++@@@@@@@@@@@@@@@@@@@@@@@@@@@@@@@@@@@@....@@@@@@@@",
"++++++++....++++@@@@@@@@@@@@@@@@@@@@@@@@@@@@@@@@@@@@....@@@@@@@@",
"++++++++....++++@@@@@@@@@@@@@@@@@@@@@@@@@@@@@@@@@@@@....@@@@@@@@",
"++++++++................................................@@@@@@@@",
"++++++++................................................@@@@@@@@",
"++++++++................................................@@@@@@@@",
"++++++++................................................@@@@@@@@",
"++++....@@@@@@@@@@@@@@@@@@@@@@@@@@@@@@@@@@@@@@@@@@@@@@@@++++@@@@",
"++++....@@@@@@@@@@@@@@@@@@@@@@@@@@@@@@@@@@@@@@@@@@@@@@@@++++@@@@",
"++++....@@@@@@@@@@@@@@@@@@@@@@@@@@@@@@@@@@@@@@@@@@@@@@@@++++@@@@",
"++++....@@@@@@@@@@@@@@@@@@@@@@@@@@@@@@@@@@@@@@@@@@@@@@@@++++@@@@",
"....@@@@@@@@@@@@@@@@@@@@@@@@@@@@@@@@@@@@@@@@@@@@@@@@@@@@@@@@++++",
"....@@@@@@@@@@@@@@@@@@@@@@@@@@@@@@@@@@@@@@@@@@@@@@@@@@@@@@@@++++",
"....@@@@@@@@@@@@@@@@@@@@@@@@@@@@@@@@@@@@@@@@@@@@@@@@@@@@@@@@++++",
"....@@@@@@@@@@@@@@@@@@@@@@@@@@@@@@@@@@@@@@@@@@@@@@@@@@@@@@@@++++"};
